<svg width="2390" height="1060" viewBox="0 0 2390 1060" fill="none" xmlns="http://www.w3.org/2000/svg">
<mask id="mask0_105_3" style="mask-type:luminance" maskUnits="userSpaceOnUse" x="0" y="0" width="2495" height="1060">
<path d="M2494.46 0H0V1059.11H2494.46V0Z" fill="white"/>
</mask>
<g mask="url(#mask0_105_3)">
<path fill-rule="evenodd" clip-rule="evenodd" d="M230.892 254.604H285.91V290.647H287.401C303.73 271.141 339.423 248.599 394.428 248.599C485.112 248.599 529.715 308.662 529.715 376.209C529.715 446.777 489.574 514.337 394.428 514.337C339.41 514.337 308.179 496.335 290.358 473.793H288.867V613.439H230.892V254.604ZM382.535 286.147C318.607 286.147 288.867 334.174 288.867 382.227C288.867 424.275 315.624 476.815 381.03 476.815C443.467 476.815 468.745 419.748 468.745 380.709C468.745 334.187 444.958 286.147 382.535 286.147Z" fill="black"/>
<path d="M230.892 254.604H285.91V290.647H287.401C303.73 271.141 339.423 248.599 394.428 248.599C485.112 248.599 529.715 308.662 529.715 376.209C529.715 446.777 489.574 514.337 394.428 514.337C339.41 514.337 308.179 496.335 290.358 473.793H288.867V613.439H230.892V254.604ZM382.535 286.147C318.607 286.147 288.867 334.174 288.867 382.227C288.867 424.275 315.624 476.815 381.03 476.815C443.467 476.815 468.745 419.748 468.745 380.709C468.745 334.187 444.958 286.147 382.535 286.147Z" stroke="black" stroke-width="26.4843" stroke-miterlimit="2.613" stroke-linejoin="round"/>
<path fill-rule="evenodd" clip-rule="evenodd" d="M587.69 254.604H642.682V293.63H644.174C659.037 266.614 691.734 248.586 725.935 248.586C742.303 248.586 751.213 250.091 763.093 251.608V293.63C752.954 290.674 742.449 289.159 731.888 289.13C679.866 289.13 645.678 329.673 645.678 392.719V508.319H587.703L587.69 254.604Z" fill="black"/>
<path d="M587.69 254.604H642.682V293.63H644.174C659.037 266.614 691.734 248.586 725.935 248.586C742.303 248.586 751.213 250.091 763.093 251.608V293.63C752.954 290.674 742.449 289.159 731.888 289.13C679.866 289.13 645.678 329.673 645.678 392.719V508.319H587.703L587.69 254.604Z" stroke="black" stroke-width="26.4843" stroke-miterlimit="2.613" stroke-linejoin="round"/>
<path fill-rule="evenodd" clip-rule="evenodd" d="M941.506 248.599C1036.64 248.599 1100.58 304.162 1100.58 380.722C1100.58 454.287 1035.16 514.35 941.506 514.35C846.346 514.35 780.953 454.3 780.953 380.722C780.94 304.162 844.855 248.599 941.506 248.599ZM941.506 476.815C1009.87 476.815 1039.61 427.271 1039.61 380.709C1039.61 332.669 1003.94 286.147 941.506 286.147C879.043 286.147 843.389 332.669 843.389 380.709C843.376 427.271 873.116 476.815 941.506 476.815Z" fill="black"/>
<path d="M941.506 248.599C1036.64 248.599 1100.58 304.162 1100.58 380.722C1100.58 454.287 1035.16 514.35 941.506 514.35C846.346 514.35 780.953 454.3 780.953 380.722C780.94 304.162 844.855 248.599 941.506 248.599ZM941.506 476.815C1009.87 476.815 1039.61 427.271 1039.61 380.709C1039.61 332.669 1003.94 286.147 941.506 286.147C879.043 286.147 843.389 332.669 843.389 380.709C843.376 427.271 873.116 476.815 941.506 476.815Z" stroke="black" stroke-width="26.4843" stroke-miterlimit="2.613" stroke-linejoin="round"/>
<path fill-rule="evenodd" clip-rule="evenodd" d="M1180.84 292.152H1124.35V254.604H1180.84V230.584C1180.84 169.03 1200.16 128.486 1284.91 128.486C1299.77 128.486 1313.15 129.991 1325.03 131.482L1322.06 169.03C1312.77 167.124 1303.31 166.116 1293.82 166.021C1244.75 166.021 1237.31 193.05 1237.31 227.588V254.604H1320.56V292.152H1237.32V508.319H1180.84V292.152Z" fill="black"/>
<path d="M1180.84 292.152H1124.35V254.604H1180.84V230.584C1180.84 169.03 1200.16 128.486 1284.91 128.486C1299.77 128.486 1313.15 129.991 1325.03 131.482L1322.06 169.03C1312.77 167.124 1303.31 166.116 1293.82 166.021C1244.75 166.021 1237.31 193.05 1237.31 227.588V254.604H1320.56V292.152H1237.32V508.319H1180.84V292.152Z" stroke="black" stroke-width="26.4843" stroke-miterlimit="2.613" stroke-linejoin="round"/>
<path fill-rule="evenodd" clip-rule="evenodd" d="M1371.14 254.604H1429.1V508.319H1371.14V254.604ZM1366.68 123.986H1432.06V176.526H1366.68V123.986Z" fill="black"/>
<path d="M1371.14 254.604H1429.1V508.319H1371.14V254.604ZM1366.68 123.999H1432.06V176.539H1366.68V123.999Z" stroke="black" stroke-width="26.4843" stroke-miterlimit="2.613" stroke-linejoin="round"/>
<path fill-rule="evenodd" clip-rule="evenodd" d="M1491.54 134.517H1549.53V508.358H1491.54V134.517Z" fill="black"/>
<path d="M1491.54 134.517H1549.53V508.358H1491.54V134.517Z" stroke="black" stroke-width="26.4843" stroke-miterlimit="2.613" stroke-linejoin="round"/>
<path fill-rule="evenodd" clip-rule="evenodd" d="M718.503 673.502H773.495V714.019H774.987C789.85 687.003 822.56 667.484 856.748 667.484C873.116 667.484 882.026 668.975 895.398 671.997V714.019C883.518 709.519 873.116 709.519 862.701 709.519C810.679 709.519 776.491 748.545 776.491 811.604V927.216H718.516L718.503 673.502Z" fill="black"/>
<path d="M718.503 673.502H773.495V714.019H774.987C789.85 687.003 822.56 667.484 856.748 667.484C873.116 667.484 882.026 668.975 895.398 671.997V714.019C883.518 709.519 873.116 709.519 862.701 709.519C810.679 709.519 776.491 748.558 776.491 811.604V927.216H718.516L718.503 673.502Z" stroke="black" stroke-width="26.4843" stroke-miterlimit="2.613" stroke-linejoin="round"/>
<path fill-rule="evenodd" clip-rule="evenodd" d="M1980.64 671.984H2034.14V711.023H2035.63C2050.49 685.486 2084.67 665.966 2117.41 665.966C2135.24 665.966 2142.66 667.471 2156.06 668.962V711.01C2145.41 708.031 2134.4 706.512 2123.34 706.497C2071.3 706.497 2038.63 747.014 2038.63 810.086V925.673H1980.64V671.984Z" fill="black"/>
<path d="M1980.64 671.984H2034.14V711.023H2035.63C2050.49 685.486 2084.67 665.966 2117.41 665.966C2135.24 665.966 2142.66 667.471 2156.06 668.962V711.01C2145.41 708.031 2134.4 706.512 2123.34 706.497C2071.3 706.497 2038.63 747.014 2038.63 810.086V925.673H1980.64V671.984Z" stroke="black" stroke-width="26.4843" stroke-miterlimit="2.613" stroke-linejoin="round"/>
<path fill-rule="evenodd" clip-rule="evenodd" d="M1183.79 916.711C1161.5 924.207 1136.23 933.208 1085.7 933.208C974.189 933.208 922.168 879.15 922.168 796.585C922.168 721.529 981.621 667.484 1069.34 667.484C1174.88 667.484 1209.07 729.038 1209.07 811.604H984.617C984.617 861.148 1032.19 895.674 1087.17 895.674C1125.82 895.674 1170.42 880.655 1183.81 870.136L1183.79 916.711ZM1146.64 777.065C1146.64 738.026 1118.4 706.523 1067.83 706.523C1011.36 706.523 989.066 744.057 984.604 777.065H1146.64Z" fill="black"/>
<path d="M1183.79 916.711C1161.5 924.207 1136.23 933.208 1085.7 933.208C974.189 933.208 922.168 879.15 922.168 796.585C922.168 721.529 981.621 667.484 1069.34 667.484C1174.88 667.484 1209.07 729.038 1209.07 811.604H984.617C984.617 861.148 1032.18 895.674 1087.17 895.674C1125.82 895.674 1170.42 880.655 1183.81 870.136L1183.79 916.711ZM1146.64 777.065C1146.64 738.026 1118.4 706.523 1067.83 706.523C1011.36 706.523 989.066 744.057 984.604 777.065H1146.64Z" stroke="black" stroke-width="26.4843" stroke-miterlimit="2.613" stroke-linejoin="round"/>
<path fill-rule="evenodd" clip-rule="evenodd" d="M1203.12 994.776C1210.58 994.776 1215.02 996.28 1226.93 996.28C1253.67 996.28 1267.05 975.256 1267.05 942.235V671.984H1325.03V934.713C1325.03 972.234 1323.57 1036.8 1237.32 1036.8C1223.95 1036.8 1209.07 1035.32 1201.65 1033.81L1203.12 994.776ZM1264.09 562.377H1329.52V614.917H1264.09V562.377Z" fill="black"/>
<path d="M1203.12 994.776C1210.58 994.776 1215.02 996.28 1226.93 996.28C1253.67 996.28 1267.05 975.256 1267.05 942.235V671.984H1325.03V934.713C1325.03 972.234 1323.57 1036.8 1237.32 1036.8C1223.95 1036.8 1209.07 1035.32 1201.65 1033.81L1203.12 994.776ZM1264.09 562.377H1329.52V614.917H1264.09V562.377Z" stroke="black" stroke-width="26.4843" stroke-miterlimit="2.613" stroke-linejoin="round"/>
<path fill-rule="evenodd" clip-rule="evenodd" d="M1387.46 876.167C1409.78 888.19 1442.48 894.182 1460.31 894.182C1485.59 894.182 1518.3 885.181 1518.3 858.165C1518.3 811.617 1383.02 816.117 1383.02 744.057C1383.02 691.517 1430.57 665.979 1493.03 665.979C1521.28 665.979 1543.56 670.493 1565.88 676.498L1561.4 717.041C1548.02 711.036 1513.82 703.514 1498.96 703.514C1470.71 703.514 1443.97 714.032 1443.97 735.056C1443.97 786.118 1580.73 771.099 1580.73 852.147C1580.73 907.71 1527.23 931.743 1470.72 931.743C1440.98 931.743 1411.24 930.225 1384.53 918.202L1387.46 876.167Z" fill="black"/>
<path d="M1387.46 876.167C1409.78 888.19 1442.48 894.182 1460.31 894.182C1485.59 894.182 1518.3 885.181 1518.3 858.165C1518.3 811.617 1383.02 816.117 1383.02 744.057C1383.02 691.517 1430.57 665.979 1493.03 665.979C1521.28 665.979 1543.56 670.493 1565.88 676.498L1561.4 717.041C1548.02 711.036 1513.82 703.514 1498.96 703.514C1470.71 703.514 1443.97 714.032 1443.97 735.056C1443.97 786.118 1580.73 771.099 1580.73 852.147C1580.73 907.71 1527.23 931.743 1470.72 931.743C1440.98 931.743 1411.24 930.225 1384.53 918.202L1387.46 876.167Z" stroke="black" stroke-width="26.4843" stroke-miterlimit="2.613" stroke-linejoin="round"/>
<path fill-rule="evenodd" clip-rule="evenodd" d="M1884.01 915.193C1861.68 922.716 1836.46 931.717 1784.4 931.717C1672.88 931.717 1622.35 877.659 1622.35 795.093C1622.35 720.024 1680.34 665.966 1769.53 665.966C1873.59 665.966 1907.79 727.534 1907.79 810.099H1683.3C1683.3 859.618 1732.36 894.156 1787.38 894.156C1826.02 894.156 1869.13 877.659 1883.99 868.645L1884.01 915.193ZM1846.85 774.069C1846.85 736.548 1818.57 703.514 1768.07 703.514C1711.56 703.514 1687.77 742.553 1683.31 774.069H1846.85Z" fill="black"/>
<path d="M1884.01 915.193C1861.68 922.716 1836.46 931.717 1784.4 931.717C1672.88 931.717 1622.35 877.659 1622.35 795.093C1622.35 720.024 1680.34 665.966 1769.53 665.966C1873.59 665.966 1907.79 727.534 1907.79 810.099H1683.3C1683.3 859.618 1732.36 894.156 1787.38 894.156C1826.02 894.156 1869.13 877.659 1883.99 868.645L1884.01 915.193ZM1846.85 774.069C1846.85 736.548 1818.57 703.514 1768.07 703.514C1711.56 703.514 1687.77 742.553 1683.31 774.069H1846.85Z" stroke="black" stroke-width="26.4843" stroke-miterlimit="2.613" stroke-linejoin="round"/>
<path d="M2046.02 548.862C2191.73 548.862 2309.17 428.775 2309.17 283.125C2309.17 135.996 2191.73 15.8958 2046.02 15.8958C1900.35 15.8958 1782.93 135.983 1782.93 283.125C1782.93 428.775 1900.35 548.862 2046.02 548.862Z" stroke="black" stroke-width="13.2421" stroke-miterlimit="2.613"/>
<path d="M1915.21 220.079V514.337" stroke="black" stroke-width="13.2421" stroke-miterlimit="2.613"/>
<path d="M1915.21 51.9387V134.517" stroke="black" stroke-width="13.2421" stroke-miterlimit="2.613"/>
<path d="M2046.02 15.8958V548.862" stroke="black" stroke-width="13.2421" stroke-miterlimit="2.613"/>
<path d="M2176.86 50.4342V305.666" stroke="black" stroke-width="13.2421" stroke-miterlimit="2.613"/>
<path d="M2176.86 356.689V518.85" stroke="black" stroke-width="13.2421" stroke-miterlimit="2.613"/>
<path d="M1818.57 149.523H1900.35" stroke="black" stroke-width="13.2421" stroke-miterlimit="2.613"/>
<path d="M2034.14 149.523H2273.47" stroke="black" stroke-width="13.2421" stroke-miterlimit="2.613"/>
<path d="M1818.57 413.756H2273.47" stroke="black" stroke-width="13.2421" stroke-miterlimit="2.613"/>
<path d="M1878.05 283.125H2309.17" stroke="black" stroke-width="13.2421" stroke-miterlimit="2.613"/>
<path d="M1781.44 283.125H1852.8" stroke="black" stroke-width="13.2421" stroke-miterlimit="2.613"/>
<path fill-rule="evenodd" clip-rule="evenodd" d="M2102.53 98.4742C2105.5 98.4742 2108.46 98.4742 2111.46 96.9697H2112.95V99.9917H2111.46V101.496C2108.47 99.9917 2106.99 99.9917 2104.01 101.496C2104.01 101.496 2102.55 102.975 2104.01 102.975C2105.5 104.492 2104.01 105.997 2104.01 107.488C2104.01 107.488 2102.55 108.993 2102.55 110.497C2101.05 110.497 2099.56 110.497 2098.08 111.989C2098.08 113.506 2096.59 111.989 2095.1 111.989L2096.59 113.506C2095.1 113.506 2095.1 113.506 2093.62 111.989L2095.09 110.497C2092.12 110.497 2093.62 107.488 2090.63 108.993C2089.14 108.993 2089.14 107.488 2087.66 107.488L2086.17 105.997C2087.66 104.492 2089.14 102.975 2090.63 99.9917C2092.12 99.9917 2095.09 101.496 2095.09 98.4742L2096.58 99.9917C2098.07 98.4742 2098.07 98.4742 2098.07 96.9697C2099.55 98.4742 2102.53 96.9568 2102.53 98.4742ZM1852.8 257.626C1854.27 259.105 1852.8 260.609 1854.27 260.609V262.114C1852.8 262.114 1852.8 263.605 1852.8 262.114V257.626ZM2148.61 187.058V188.562C2145.64 188.562 2144.15 190.041 2142.66 193.063C2141.2 193.063 2141.2 194.567 2139.69 194.567H2136.72C2136.72 193.063 2136.72 191.558 2135.23 191.558L2136.72 188.562C2139.7 191.558 2144.15 187.058 2148.61 187.058ZM1863.18 284.629C1866.16 287.625 1863.18 289.143 1863.18 290.647C1861.68 290.647 1863.18 287.638 1863.18 286.147V284.629ZM1858.73 302.644C1858.73 304.162 1857.24 305.666 1858.73 305.666H1860.22C1860.22 305.666 1863.19 307.158 1860.22 307.158C1860.22 308.662 1861.68 308.662 1860.22 310.167C1858.73 310.167 1858.73 307.158 1857.24 308.662C1855.77 308.662 1857.24 307.158 1855.77 307.158V305.666V302.644C1857.22 302.644 1858.73 304.162 1858.73 302.644Z" fill="black"/>
<path fill-rule="evenodd" clip-rule="evenodd" d="M1858.73 310.167C1857.24 310.167 1858.73 311.684 1857.24 311.684H1854.27C1854.27 310.167 1855.76 310.167 1855.76 310.167C1857.22 310.167 1858.73 308.662 1858.73 310.167ZM1858.73 331.191C1857.24 331.191 1858.73 329.686 1858.73 329.686H1860.22L1858.73 331.191ZM1861.68 361.203C1860.22 362.707 1864.67 362.707 1861.68 364.225C1861.68 362.707 1858.73 362.707 1861.68 361.203ZM2017.8 317.663C2017.8 317.663 2016.34 316.185 2016.34 317.663C2014.84 319.168 2011.85 319.168 2010.38 319.168H2008.89L2011.86 316.185C2013.31 316.185 2016.34 316.185 2017.8 317.663ZM2016.34 322.164C2016.34 323.668 2014.84 323.668 2013.33 323.668C2013.33 322.164 2010.38 320.685 2013.33 320.685C2014.84 320.685 2014.84 322.164 2016.34 322.164ZM1881.01 412.252C1882.5 412.252 1882.5 412.252 1882.5 413.756C1881.01 413.756 1881.01 416.752 1879.53 418.257C1876.55 421.253 1879.53 422.757 1878.04 425.753C1879.53 427.271 1879.53 428.775 1878.04 428.775C1876.55 428.775 1878.04 431.758 1875.07 431.758C1875.07 431.758 1873.58 430.254 1872.09 431.758C1870.62 430.254 1872.09 427.258 1870.62 424.262C1872.09 424.262 1870.62 422.744 1870.62 422.744C1873.59 419.735 1872.09 416.739 1873.59 413.743C1872.1 412.239 1873.59 410.734 1873.59 410.734H1875.08C1876.55 409.256 1875.08 409.256 1875.08 409.256C1878.05 409.269 1879.54 412.252 1881.01 412.252ZM1983.6 406.234V407.751C1983.6 407.751 1983.6 406.234 1985.09 406.234V407.751C1983.6 407.751 1982.12 410.734 1980.63 407.751C1982.13 407.751 1980.64 403.251 1983.6 406.234ZM1967.27 428.775L1965.78 430.254C1964.29 428.775 1965.78 427.271 1964.29 427.271C1965.77 424.275 1965.77 428.775 1967.27 428.775ZM2086.18 404.755C2083.21 401.733 2084.69 398.75 2083.21 395.715C2081.72 394.237 2078.75 392.732 2080.22 391.215C2078.76 389.736 2078.76 386.714 2077.25 386.714C2075.75 386.714 2074.28 386.714 2074.28 383.718L2072.79 380.696V379.218C2072.79 377.7 2074.28 379.218 2075.76 377.7H2078.75C2078.75 376.196 2080.21 373.2 2077.25 374.704C2075.76 371.695 2075.76 370.204 2075.76 367.195C2072.79 365.677 2072.79 361.177 2071.3 359.698C2071.3 359.698 2071.3 361.177 2069.81 361.177C2069.81 359.698 2071.3 356.676 2069.81 355.185C2068.37 355.185 2069.81 356.676 2068.37 356.676C2066.85 356.676 2066.85 356.676 2066.85 355.185V356.676C2066.85 358.194 2068.37 356.676 2068.37 356.676C2068.37 359.698 2069.81 362.681 2069.81 364.199C2068.37 364.199 2068.37 361.177 2068.37 359.698C2066.85 361.177 2066.85 364.199 2068.37 365.677V368.699C2069.81 370.204 2069.81 370.204 2068.37 371.682C2066.85 370.204 2068.37 368.699 2066.85 368.699C2065.36 368.699 2063.88 368.699 2063.88 370.204C2063.88 371.682 2066.85 371.682 2068.37 373.187V376.183C2066.85 376.183 2065.36 376.183 2065.36 374.691C2063.9 376.183 2062.42 376.183 2062.42 377.687H2065.36V380.683C2066.85 380.683 2068.37 380.683 2069.82 382.201C2069.82 380.683 2071.31 380.683 2071.31 380.683C2071.31 382.201 2069.82 382.201 2069.82 383.705C2069.82 385.21 2068.38 382.201 2068.38 382.201C2066.87 382.201 2065.37 380.683 2063.9 380.683V379.205C2065.36 379.205 2063.88 377.687 2062.42 377.687C2060.9 379.205 2059.45 377.687 2057.94 377.687C2056.48 377.687 2057.94 379.205 2056.48 379.205C2057.94 379.205 2057.94 380.683 2057.94 380.683C2056.48 380.683 2056.48 382.201 2054.97 382.201H2053.48L2051.99 383.705C2050.5 382.201 2053.48 379.205 2053.48 377.687C2051.99 376.183 2053.48 376.183 2054.97 376.183C2053.48 373.187 2056.46 376.183 2056.46 374.691C2056.46 373.187 2057.93 374.691 2057.93 374.691V373.187C2056.46 373.187 2057.93 370.204 2056.46 368.686C2057.93 368.686 2057.93 367.182 2057.93 367.182C2060.9 367.182 2060.9 370.191 2062.42 371.682C2062.42 371.682 2063.88 370.204 2062.42 370.204C2060.9 367.195 2057.93 365.677 2056.46 364.199C2053.48 361.177 2050.49 358.194 2047.53 356.676C2044.56 355.185 2044.56 353.68 2043.09 353.68C2041.6 355.185 2040.12 356.676 2037.11 356.676H2038.63H2035.65C2035.65 356.676 2034.16 359.698 2032.68 358.194C2031.16 359.698 2028.22 361.177 2026.7 359.698C2025.26 362.681 2023.75 361.177 2022.26 362.681C2020.77 364.199 2019.29 362.681 2019.29 364.199C2017.8 365.677 2014.83 365.677 2013.31 367.195L2011.85 368.699C2010.38 368.699 2005.92 370.204 2002.93 368.699C2002.93 367.195 2001.46 365.677 2002.93 364.199C2002.93 362.681 2001.46 362.681 1999.95 362.681C1998.45 362.681 1998.46 365.677 1996.98 365.677C1996.98 364.199 1995.49 364.199 1995.49 364.199V367.195C1996.98 368.699 1994 368.699 1994 370.204C1991.03 370.204 1991.03 367.195 1988.05 368.699V374.691H1989.54C1991.03 376.183 1992.51 379.205 1994 379.205C1991.03 382.201 1995.49 380.683 1995.49 382.201H1996.98C1998.45 382.201 1999.95 382.201 1999.95 383.705C2001.45 386.701 1998.46 383.705 1996.98 385.21H1998.45L1999.94 386.701C2004.4 391.202 1995.48 388.206 1996.97 392.706C1998.44 392.706 1999.94 392.706 2001.43 394.211C2001.43 394.211 2004.4 392.706 2004.4 394.211V403.212C2005.9 404.729 2002.91 407.725 2004.4 409.23C2002.91 412.213 2008.87 410.708 2007.35 413.73C2008.87 413.73 2010.36 415.209 2011.84 415.209C2013.3 416.726 2013.3 418.231 2013.3 419.722H2014.82C2014.82 418.231 2013.3 418.231 2013.3 418.231C2014.82 418.231 2014.82 416.726 2016.31 418.231C2014.82 421.227 2019.28 419.722 2020.75 421.227C2022.24 421.227 2022.24 419.722 2023.73 419.722C2023.73 421.227 2023.73 421.227 2025.22 422.731V425.715C2026.66 425.715 2026.66 428.736 2028.19 428.736C2028.19 430.215 2026.67 430.215 2025.22 430.215C2025.22 431.72 2023.73 430.215 2023.73 430.215L2022.24 431.719C2022.24 433.224 2020.75 431.719 2020.75 431.719C2020.75 434.715 2017.78 434.715 2019.28 436.22C2020.75 437.724 2022.25 436.22 2023.74 436.22C2025.23 433.224 2026.69 437.724 2029.69 437.724C2031.13 437.724 2029.69 440.72 2031.13 440.72H2032.65C2031.13 439.216 2032.65 437.724 2034.12 437.724L2032.65 436.22C2032.65 434.715 2031.13 434.716 2031.13 434.716C2034.12 431.72 2034.12 436.22 2035.62 436.22C2037.09 436.22 2038.6 437.725 2038.6 439.216C2040.1 439.216 2041.57 439.216 2041.57 440.72H2043.07C2044.53 442.225 2044.53 440.72 2044.53 440.72H2047.5C2046.01 442.225 2049.02 442.225 2049.02 443.73H2053.46L2057.92 446.713C2059.41 446.713 2059.41 445.208 2059.41 445.208C2060.87 445.208 2062.39 443.729 2063.87 442.225C2065.34 442.225 2065.34 440.72 2066.84 440.72C2069.81 442.225 2071.3 439.216 2072.79 442.225V440.772H2074.28C2075.75 440.772 2078.75 440.772 2078.75 437.776L2080.21 434.767C2080.21 433.276 2080.21 431.771 2081.7 430.267C2080.21 428.788 2083.2 427.284 2081.7 425.753C2083.2 424.275 2083.19 419.748 2083.19 416.752V410.747C2083.19 410.747 2083.2 409.269 2081.7 409.269C2080.21 407.764 2081.7 407.764 2083.19 406.247C2081.7 404.768 2080.21 406.247 2078.73 404.768C2078.73 403.251 2080.2 404.768 2081.7 404.768V403.251C2083.2 403.251 2083.19 404.768 2084.67 404.768C2084.67 404.768 2084.67 406.247 2086.17 406.247H2087.66C2087.67 404.755 2086.18 406.234 2086.18 404.755Z" fill="black"/>
<path fill-rule="evenodd" clip-rule="evenodd" d="M2013.31 422.77C2011.85 424.288 2013.31 427.284 2011.85 427.284L2013.31 428.788C2014.83 428.788 2014.83 430.267 2016.32 430.267C2019.29 425.753 2014.83 424.288 2013.31 421.266V422.77ZM2005.92 460.292C2005.92 460.292 2007.36 458.787 2005.92 458.787V457.309L2004.43 454.287C2002.94 454.287 2002.94 451.291 2002.94 451.291C2001.47 449.786 2001.47 448.308 1999.97 448.308C1999.97 446.79 1998.48 446.79 1998.48 446.79C1997.01 445.286 1997.01 445.286 1995.51 445.286C1994.01 446.79 1994.01 443.807 1991.04 442.303C1989.55 442.303 1991.04 439.294 1989.55 439.294C1988.06 436.298 1983.6 436.298 1982.13 434.793C1980.64 436.298 1979.15 434.793 1977.65 434.793C1976.18 436.298 1976.18 436.298 1974.68 436.298C1973.19 437.802 1973.19 439.294 1971.71 439.294C1970.22 440.798 1973.17 440.798 1974.68 440.798C1974.68 440.798 1976.17 439.294 1977.65 440.798C1977.65 440.798 1976.18 440.798 1976.18 442.303C1976.18 443.807 1973.2 440.798 1973.2 443.807C1973.2 443.807 1974.69 443.807 1974.69 445.286C1974.69 445.286 1976.18 446.79 1977.66 445.286C1980.64 446.79 1982.15 445.286 1985.1 446.79C1983.61 446.79 1983.61 446.79 1983.61 448.308C1983.61 448.308 1983.61 449.786 1985.1 449.786C1986.6 449.786 1988.07 451.291 1989.57 451.291C1988.07 452.795 1988.07 454.287 1988.07 454.287H1989.57C1989.57 455.791 1988.07 455.791 1988.07 455.791C1988.07 457.309 1989.57 455.791 1991.06 457.309H1992.52C1991.06 458.787 1991.06 461.809 1989.55 463.314C1991.04 463.314 1992.52 463.314 1992.52 461.809C1994.01 461.809 1995.51 463.314 1995.51 463.314C1997 464.792 1998.48 464.792 1999.97 466.297C1999.97 467.814 2001.46 467.814 2001.46 469.293C1999.97 469.293 1999.97 467.814 1998.48 467.814C1998.48 466.297 1995.51 466.297 1995.51 464.792C1994.01 464.792 1994.01 463.314 1992.52 463.314C1992.52 464.792 1991.06 466.297 1989.55 466.297C1989.55 467.814 1991.04 467.814 1992.52 469.293C1995.51 469.293 1998.48 472.315 2001.46 470.81C2002.93 466.297 2005.92 467.827 2008.88 467.827C2008.89 464.792 2005.92 463.314 2005.92 460.292ZM2133.75 419.748C2133.75 421.253 2132.29 421.253 2132.29 421.253C2130.79 421.253 2130.79 419.748 2130.79 419.748C2130.79 419.748 2132.27 418.257 2133.75 419.748ZM2138.2 421.253C2139.69 424.275 2141.18 419.748 2141.18 421.253C2139.69 422.757 2138.2 424.275 2136.72 424.275C2135.23 422.757 2135.23 422.757 2133.74 422.757H2132.27C2133.74 421.253 2135.24 422.757 2135.24 419.748C2136.73 421.253 2136.73 419.748 2138.2 421.253ZM2132.27 424.275C2132.27 425.753 2130.78 422.757 2130.78 424.275V422.757C2130.78 422.77 2132.27 422.77 2132.27 424.275ZM2068.37 442.277C2069.81 443.781 2068.37 445.26 2069.81 445.26C2071.3 446.764 2069.81 446.764 2069.81 448.282C2068.37 449.76 2066.84 451.265 2066.84 452.782C2066.84 452.782 2068.36 452.782 2069.81 454.274C2069.81 452.782 2071.3 452.782 2071.3 451.278H2072.79C2072.79 452.782 2072.79 455.778 2069.81 454.274C2069.81 454.274 2069.81 455.778 2068.37 455.778L2066.85 457.296H2062.42C2062.42 457.296 2063.88 457.296 2063.88 458.774H2060.9C2059.43 458.774 2063.88 457.296 2060.9 457.296C2060.9 455.778 2057.93 454.274 2059.43 452.782C2059.43 452.782 2059.43 451.278 2057.94 451.278H2060.9C2059.43 449.773 2057.93 449.773 2057.93 451.278V449.773C2059.42 448.295 2060.9 446.777 2062.42 446.777C2062.42 445.273 2063.88 445.273 2065.36 443.794C2066.84 443.794 2066.84 440.772 2068.37 442.277ZM2035.63 457.309C2035.63 458.787 2035.63 458.787 2037.1 458.787C2038.62 457.309 2038.62 460.292 2038.62 460.292C2041.59 461.796 2040.11 466.297 2044.55 466.297V467.814L2047.52 464.792C2047.52 464.792 2046.02 463.314 2046.02 461.809C2047.52 461.809 2047.52 463.314 2049.03 464.792C2049.03 466.297 2047.52 467.814 2049.03 467.814C2050.47 470.797 2047.52 473.793 2051.98 473.793V475.311C2050.49 475.311 2050.49 475.311 2049.03 476.815C2050.47 476.815 2049.03 478.307 2049.03 478.307C2047.52 478.307 2047.52 476.815 2046.02 475.311C2046.02 473.793 2043.08 473.793 2043.08 472.315C2041.59 470.81 2041.59 467.814 2038.62 467.814C2037.1 466.297 2035.63 463.301 2034.13 461.796C2035.62 457.296 2031.15 457.296 2031.15 454.274C2034.14 452.795 2032.68 457.309 2035.63 457.309Z" fill="black"/>
<path fill-rule="evenodd" clip-rule="evenodd" d="M2063.88 442.277C2065.35 443.781 2063.88 445.26 2063.88 446.777C2063.88 443.794 2060.9 448.295 2060.9 445.273C2060.9 443.794 2062.42 445.273 2062.42 443.794C2060.9 442.29 2057.93 445.273 2059.43 442.29L2063.88 442.277ZM2053.47 466.297C2051.98 466.297 2053.47 467.814 2054.96 467.814C2056.45 469.293 2057.93 470.797 2057.93 472.315C2057.93 473.793 2059.42 472.315 2059.42 473.793H2053.47C2053.47 472.315 2047.52 473.793 2050.49 470.81C2050.49 469.293 2051.98 469.293 2053.47 469.293V470.81H2054.96C2054.96 467.827 2051.98 467.827 2051.98 466.297H2053.47ZM2047.52 467.814H2046.02C2046.02 466.297 2044.56 467.814 2044.56 466.297C2044.56 466.297 2046.02 466.297 2047.52 467.814ZM2095.09 425.753C2093.62 424.275 2093.62 427.271 2093.62 427.271C2089.14 428.775 2090.64 433.276 2087.67 436.272C2089.14 437.776 2087.67 439.268 2087.67 440.772C2087.67 442.277 2086.18 443.781 2086.18 445.273C2086.18 445.273 2086.18 448.295 2084.69 446.777V448.295C2083.22 451.278 2081.72 454.274 2078.76 454.274C2077.27 454.274 2075.78 457.296 2074.3 458.774C2072.81 460.279 2072.81 461.783 2072.81 463.301H2071.31C2071.31 464.779 2069.82 464.779 2071.31 466.284C2072.81 464.779 2072.81 466.284 2072.81 466.284L2074.3 464.779V469.28H2072.81L2071.31 467.801C2071.31 469.28 2069.82 470.784 2071.31 470.784C2069.82 473.767 2068.37 475.285 2068.37 476.789C2068.37 476.789 2068.37 475.285 2066.85 475.285C2065.36 475.285 2065.36 475.285 2063.88 473.767C2065.35 475.285 2063.88 476.789 2065.35 476.789C2066.84 478.281 2068.36 479.785 2069.81 481.29C2069.81 482.807 2069.81 485.79 2071.3 488.786H2069.81C2069.81 490.291 2069.81 491.808 2071.3 493.287C2075.76 493.287 2075.76 488.786 2077.25 485.79C2077.25 482.807 2078.75 479.785 2080.22 478.281C2080.22 475.285 2083.21 472.289 2083.21 469.267C2084.67 467.788 2083.21 466.271 2083.21 464.766C2084.67 463.288 2084.67 461.783 2084.67 461.783C2084.67 458.774 2087.66 455.778 2089.14 454.261C2092.12 452.769 2090.63 449.76 2092.12 446.751C2092.12 442.251 2095.09 436.246 2095.09 431.745C2095.09 430.267 2096.58 428.775 2095.09 425.753ZM2208.09 443.794C2208.09 445.273 2209.59 446.777 2211.06 448.308C2212.56 448.308 2214.05 449.786 2215.53 448.308C2216.99 449.786 2219.99 448.308 2221.48 449.786H2222.97C2225.94 449.786 2228.92 451.291 2230.39 452.795L2233.37 460.292C2230.39 466.297 2225.93 460.292 2222.96 460.292C2218.47 458.787 2214.03 458.787 2212.54 461.796C2208.08 464.779 2206.59 469.293 2202.13 472.315C2200.64 473.793 2199.16 469.293 2197.67 472.315C2196.17 470.81 2197.67 469.293 2196.17 469.293H2197.67C2196.17 467.814 2194.7 469.293 2193.2 467.814C2194.7 467.814 2196.17 466.297 2194.7 466.297C2193.2 463.314 2197.67 463.314 2196.16 461.796L2194.7 460.292C2196.16 458.787 2197.67 457.309 2199.16 457.309C2199.16 457.309 2199.16 458.787 2200.62 458.787V457.309L2199.16 455.791C2200.62 455.791 2200.62 454.287 2202.13 455.791C2202.13 457.309 2202.13 457.309 2203.62 458.787C2203.62 457.309 2206.59 457.309 2208.08 455.791C2209.57 457.309 2209.57 457.309 2208.08 458.787C2208.08 460.292 2206.59 460.292 2208.08 460.292C2209.57 458.787 2211.05 457.309 2214.03 457.309C2214.03 455.791 2211.05 455.791 2209.57 457.309C2208.08 455.791 2209.57 455.791 2209.57 455.791C2208.08 454.287 2208.08 452.795 2209.57 451.291C2211.04 449.786 2208.08 449.786 2208.08 448.308C2208.08 446.79 2206.59 448.308 2205.1 448.308C2205.1 446.79 2206.59 445.286 2206.59 443.794H2208.09ZM2188.77 461.796H2190.26C2191.73 463.301 2193.23 463.301 2193.23 464.779L2191.74 467.801C2188.77 464.779 2184.32 467.801 2184.32 463.288L2185.81 461.783C2185.8 463.314 2187.28 463.314 2188.77 461.796ZM2170.94 494.83C2170.94 493.313 2172.4 493.313 2172.4 491.834C2172.44 490.288 2172.04 488.762 2171.25 487.432C2170.46 486.102 2169.31 485.02 2167.94 484.312L2166.45 482.833C2164.98 481.316 2166.45 479.811 2166.45 478.307H2164.98C2164.98 475.311 2162 478.307 2162 475.311C2160.53 475.311 2163.49 472.315 2162 470.81L2160.53 472.315L2156.07 467.814H2153.09C2156.07 469.293 2151.62 472.315 2154.58 473.793C2154.58 475.311 2153.09 473.793 2151.61 475.311C2150.12 475.311 2150.12 475.311 2148.63 473.793C2148.63 475.311 2147.14 475.311 2147.14 476.815H2148.63C2148.63 478.307 2147.14 478.307 2148.63 479.811C2147.14 479.811 2144.17 478.307 2142.67 478.307H2139.7C2139.7 476.815 2138.21 476.815 2138.21 475.311C2139.7 472.315 2135.24 473.793 2135.24 472.315C2135.24 470.81 2135.24 470.81 2133.75 470.81L2130.78 467.827C2132.27 466.31 2130.78 464.805 2130.78 464.805L2126.32 463.327C2126.32 460.318 2123.34 460.318 2121.86 458.8C2118.87 458.8 2115.9 455.804 2112.93 458.8H2109.95C2108.46 458.8 2108.46 460.305 2108.46 460.305L2106.99 461.809V460.305C2105.5 460.305 2105.5 461.809 2104.01 463.314C2101.04 463.314 2101.04 466.297 2101.04 467.827V469.306C2101.04 469.306 2101.04 470.823 2102.53 470.823C2102.53 470.823 2104 470.823 2102.53 472.328L2104 470.823C2105.49 470.823 2104 472.328 2104 472.328C2104 472.328 2105.49 472.328 2105.49 473.806V475.324C2105.49 476.828 2106.98 478.32 2106.98 479.824C2105.49 479.824 2105.49 479.824 2104 478.32C2104 479.824 2105.49 479.824 2105.49 481.329V482.846C2104 481.329 2102.52 482.846 2102.52 479.824H2099.54L2098.07 478.32C2098.07 479.824 2098.07 479.824 2099.54 479.824C2101.03 482.846 2098.07 481.329 2096.57 482.846C2095.08 481.329 2096.57 479.824 2095.08 478.32C2096.57 476.828 2096.57 478.32 2098.06 476.828L2095.08 475.324V478.32C2093.61 481.329 2098.06 482.846 2098.06 485.829C2101.03 490.33 2106.98 490.33 2109.94 491.847C2112.92 493.326 2114.4 494.843 2117.38 494.843C2117.38 497.852 2121.85 497.852 2124.8 499.344C2126.29 502.366 2127.77 505.349 2132.25 506.853C2135.22 508.345 2138.17 514.35 2142.64 514.35C2141.17 512.845 2138.17 512.845 2138.17 511.367C2138.17 509.849 2139.67 508.345 2139.67 508.345C2141.16 508.345 2142.64 506.853 2142.64 506.853H2144.13L2147.1 505.349C2147.1 503.844 2148.59 505.349 2148.59 503.844C2148.59 503.844 2150.08 505.349 2151.57 503.844C2153.04 502.366 2154.54 505.349 2154.54 505.349C2154.54 502.366 2156.03 505.349 2157.51 503.844C2159 503.844 2159 505.349 2159 505.349C2160.49 505.349 2159 503.844 2160.49 503.844C2163.46 503.844 2160.49 505.349 2161.96 506.853C2163.45 505.349 2166.42 506.853 2167.91 506.853C2167.91 506.853 2169.41 505.349 2169.41 506.853V505.349C2169.41 503.844 2170.9 503.844 2170.9 503.844C2169.41 502.366 2172.36 502.366 2170.9 500.861H2172.36C2170.9 499.357 2167.9 499.357 2167.9 496.361H2169.39L2167.9 493.339C2169.44 493.313 2169.44 494.83 2170.94 494.83Z" fill="black"/>
<path fill-rule="evenodd" clip-rule="evenodd" d="M2199.18 478.307C2197.69 475.311 2194.72 473.793 2194.72 470.81C2193.23 470.81 2191.74 467.827 2190.26 469.293C2188.77 467.814 2185.8 469.293 2184.31 467.814C2184.31 464.792 2182.82 464.792 2182.82 461.796H2181.32C2179.86 461.796 2178.35 463.301 2178.35 461.796V464.779H2176.86L2178.35 466.284C2176.86 464.779 2175.38 464.779 2175.38 464.779C2176.85 463.301 2173.89 463.301 2173.89 461.796C2175.38 460.292 2173.89 460.292 2172.4 458.787C2170.94 460.292 2170.94 457.309 2169.43 457.309C2169.43 458.787 2169.43 458.787 2170.92 460.292C2169.43 460.292 2169.43 461.796 2167.94 461.796V460.292L2164.97 458.787C2163.48 458.787 2163.48 458.787 2161.99 460.292V461.796C2160.52 460.292 2160.52 461.796 2159.02 461.796C2159.02 463.301 2161.99 463.301 2161.99 463.301C2163.48 464.779 2163.48 466.284 2163.48 466.284C2161.99 467.801 2163.48 469.28 2163.48 470.797V475.298H2166.45C2167.94 475.298 2167.94 478.294 2167.94 479.798C2167.94 479.798 2166.45 481.303 2167.94 482.82C2167.94 484.299 2169.43 484.299 2170.92 484.299C2170.92 485.803 2172.39 487.321 2173.89 488.799C2172.4 490.304 2175.38 493.3 2173.89 494.817L2176.86 496.322C2175.4 497.826 2175.4 499.318 2173.89 500.822C2173.89 502.34 2172.4 505.323 2172.4 506.827C2175.38 509.823 2178.35 514.324 2176.86 517.32C2178.35 518.837 2179.85 520.342 2181.32 518.837C2181.32 512.819 2179.86 506.827 2181.32 502.34C2181.32 497.826 2187.28 494.817 2188.77 491.821C2188.77 490.304 2190.26 487.321 2191.74 485.803C2193.23 484.299 2196.2 484.299 2196.2 481.303C2197.69 481.303 2197.69 479.798 2199.18 479.798V478.307ZM2074.3 313.15C2072.81 311.671 2074.3 310.167 2072.81 308.649L2074.3 313.15C2072.81 316.172 2071.31 314.654 2069.81 316.172C2069.81 314.654 2066.84 313.15 2068.37 310.154L2069.81 311.671V310.167H2071.3C2069.81 310.167 2069.81 308.662 2068.36 308.662C2066.84 308.662 2066.84 305.666 2065.35 304.162C2063.88 302.644 2065.35 299.661 2063.88 296.665L2060.9 299.648C2060.9 302.631 2059.43 304.149 2060.9 305.653C2060.9 307.145 2062.42 307.145 2062.42 305.653C2065.36 307.145 2065.36 308.649 2066.85 310.154C2065.36 313.137 2066.85 314.654 2065.36 317.65H2062.42C2060.9 317.65 2059.43 319.155 2060.9 320.659C2057.93 323.642 2060.9 326.638 2059.43 328.156C2060.9 329.66 2060.9 332.656 2062.42 332.656C2063.88 331.178 2065.36 335.678 2068.37 334.161C2068.37 331.178 2071.31 328.156 2069.81 325.16C2071.3 322.138 2069.81 319.155 2072.79 316.159C2072.79 314.667 2075.76 314.667 2074.3 313.15ZM1895.89 208.082C1897.38 209.56 1895.89 211.065 1895.89 212.582C1897.38 211.078 1897.38 211.078 1897.38 209.573C1895.89 206.59 1900.35 205.073 1900.35 202.077C1897.38 200.572 1897.38 205.073 1895.89 205.073C1895.89 206.577 1897.38 206.577 1895.89 208.082ZM1936.03 164.542C1936.03 163.025 1936.03 164.542 1934.54 164.542C1933.07 163.025 1931.57 163.025 1928.61 164.542C1928.61 164.542 1925.63 164.542 1925.63 166.034H1927.12C1927.12 169.043 1930.09 169.043 1931.58 170.534L1933.07 167.551C1933.07 167.551 1934.54 167.551 1934.54 169.056C1936.03 169.056 1936.03 167.551 1936.03 167.551L1934.54 166.047L1936.03 164.542ZM1892.92 184.062C1892.92 184.062 1894.41 182.557 1895.89 182.557C1894.42 182.557 1894.42 182.557 1894.42 181.04C1895.89 181.04 1894.42 179.561 1894.42 178.057C1897.39 178.057 1894.42 181.04 1895.89 181.04C1897.38 181.04 1897.38 179.561 1897.38 181.04V182.557C1897.38 182.557 1897.38 184.062 1898.87 184.062L1897.38 185.553C1897.38 187.058 1897.38 188.562 1898.87 188.562C1901.84 188.562 1903.33 188.562 1904.82 187.058C1906.29 188.562 1909.28 185.553 1910.75 185.553V182.557C1912.24 181.04 1915.21 179.561 1915.21 178.057C1918.19 176.539 1915.21 173.556 1918.19 173.556V170.534C1919.66 170.534 1918.19 172.039 1919.66 172.039C1921.15 170.534 1919.66 169.056 1919.66 169.056C1916.69 166.047 1916.69 163.038 1916.69 160.055C1916.69 158.55 1918.18 157.033 1918.18 157.033C1919.65 157.033 1919.65 157.033 1919.65 158.55L1921.14 157.033V160.055C1921.14 158.55 1922.63 157.033 1922.63 155.554C1925.6 152.532 1922.63 148.032 1925.6 145.036C1924.13 143.531 1927.09 143.531 1925.6 142.027C1925.6 143.531 1922.63 143.531 1924.13 145.036C1922.64 146.514 1921.15 146.514 1921.15 146.514H1918.18C1918.18 148.032 1916.69 151.028 1915.2 152.532C1913.73 154.037 1912.23 152.532 1912.23 154.037C1910.74 154.037 1909.26 154.037 1909.26 155.554H1907.77C1906.27 155.554 1903.3 154.037 1901.81 155.554H1900.32C1900.32 158.55 1901.81 161.533 1900.32 161.533V163.038C1900.32 164.555 1900.32 163.038 1898.86 163.038L1897.36 164.555C1898.86 164.555 1898.86 166.047 1900.33 166.047C1901.83 166.047 1901.83 166.047 1901.83 167.551C1901.83 169.056 1898.86 170.534 1897.36 170.534C1895.87 167.551 1894.39 170.534 1892.9 170.534C1891.41 172.039 1892.9 173.556 1892.9 175.074C1891.41 173.569 1889.93 176.552 1888.44 176.552C1888.44 178.07 1886.95 178.07 1888.44 179.574C1889.93 179.574 1889.93 178.07 1891.41 176.552C1891.41 178.07 1892.9 178.07 1892.9 179.574V181.053C1892.92 181.04 1891.42 182.557 1892.92 184.062ZM1898.87 197.563C1897.38 196.046 1900.33 193.063 1898.87 191.558C1898.87 191.558 1900.33 191.558 1898.87 190.041C1897.38 188.562 1895.89 190.041 1894.41 190.041C1892.92 191.558 1895.87 191.558 1895.87 193.063C1897.38 194.567 1897.38 196.046 1898.87 197.563Z" fill="black"/>
<path fill-rule="evenodd" clip-rule="evenodd" d="M2087.67 227.601L2083.21 223.088C2084.67 220.079 2081.72 220.079 2080.22 217.083C2078.76 218.587 2077.25 215.565 2075.76 215.565C2072.79 218.587 2068.37 217.083 2066.84 217.083C2063.87 217.083 2062.4 220.066 2059.42 218.587C2057.93 218.587 2056.45 218.587 2054.96 220.066C2053.47 220.066 2051.98 218.587 2050.47 218.587C2046.01 218.587 2044.55 214.087 2041.58 212.569C2040.11 211.065 2040.11 208.069 2040.11 206.564C2038.62 206.564 2038.62 205.06 2037.1 205.06C2035.63 205.06 2037.1 206.564 2037.1 208.069C2035.63 208.069 2035.63 209.547 2034.13 209.547C2034.13 211.052 2031.15 211.052 2032.66 212.556C2031.15 212.556 2031.15 214.074 2031.15 214.074C2029.71 217.07 2032.66 220.053 2029.71 223.075C2031.15 218.574 2028.22 215.552 2029.71 212.556H2031.15V209.547C2032.66 208.069 2032.66 206.564 2035.63 206.564C2034.14 205.06 2035.63 205.06 2035.63 205.06C2035.63 203.568 2037.1 205.06 2037.1 203.568C2038.62 203.568 2041.59 202.064 2041.59 200.559V194.58V190.054C2038.62 191.571 2037.1 190.054 2035.63 191.571C2032.66 190.054 2031.15 193.076 2029.71 193.076C2028.22 193.076 2026.7 193.076 2026.7 191.571C2025.26 191.571 2023.75 194.58 2022.26 194.58C2020.77 193.076 2020.77 191.571 2020.77 191.571H2019.31V190.054C2020.77 188.575 2022.28 187.071 2023.77 187.071C2025.26 187.071 2026.71 188.575 2028.23 190.054C2028.23 190.054 2028.23 188.575 2029.72 188.575C2031.16 185.566 2032.69 190.054 2034.16 188.575C2035.65 190.054 2037.13 188.575 2040.14 190.054C2041.6 187.071 2038.64 185.553 2037.13 182.557C2037.13 178.057 2034.16 172.039 2035.66 166.034L2034.17 167.538C2034.17 166.034 2035.66 166.034 2035.66 166.034V164.542C2035.66 164.542 2034.17 161.52 2035.66 161.52H2034.17V157.02H2035.66C2035.66 155.541 2035.66 152.519 2037.13 151.015C2037.13 149.523 2037.13 149.523 2038.64 149.523V148.019H2034.16C2032.69 148.019 2031.17 146.501 2029.72 146.501C2026.71 143.518 2023.77 143.518 2023.77 140.522C2023.77 139.018 2022.28 139.018 2020.78 137.5C2020.78 137.5 2019.32 137.5 2019.32 135.983C2016.35 134.504 2016.35 133 2014.86 131.482C2013.34 131.482 2011.87 134.504 2008.9 135.983C2008.9 135.983 2007.39 135.983 2007.39 134.504C2008.9 134.504 2010.4 135.983 2010.4 134.504C2011.86 133 2013.34 129.991 2014.86 129.991C2016.35 131.482 2016.35 131.482 2017.83 131.482V133C2019.52 134.847 2021.54 136.372 2023.78 137.5C2023.78 139.018 2026.72 139.018 2025.27 140.522C2028.24 142.001 2029.73 145.023 2031.17 146.501C2034.16 146.501 2035.66 146.501 2038.64 145.023C2038.64 146.501 2040.14 145.023 2040.14 146.501C2043.11 143.518 2044.57 140.522 2044.57 135.983C2044.57 135.983 2044.57 134.504 2046.04 134.504V133V131.482C2047.53 129.991 2047.53 129.991 2047.53 128.486V126.982C2047.53 125.49 2047.53 125.49 2049.05 125.49C2047.53 122.468 2050.49 120.99 2050.49 119.485L2051.98 117.968C2053.47 114.985 2059.42 114.985 2059.42 110.471V105.971C2060.89 101.47 2057.93 96.9438 2059.42 93.9608C2057.93 92.4563 2057.93 90.9647 2057.93 89.4473V86.4642C2057.93 84.9468 2057.93 83.4423 2059.42 83.4423C2057.93 81.9637 2059.42 80.4592 2059.42 78.9418C2059.42 80.4592 2060.89 78.9418 2060.89 78.9418L2059.42 72.9367C2057.93 72.9367 2057.93 71.4582 2057.93 69.9537C2057.93 68.4362 2054.96 66.9577 2054.96 65.4402C2054.96 63.9357 2051.98 62.4572 2051.98 60.9397V57.9178V56.4392V50.4212C2056.46 45.9337 2057.93 41.4202 2062.42 36.9197C2062.42 36.9197 2065.36 36.9197 2065.36 35.4152C2066.85 33.8978 2069.82 33.8977 2071.31 32.4192C2068.37 32.4192 2065.36 29.4102 2062.42 30.9018C2057.93 35.4152 2053.48 38.4112 2049.05 41.4202C2047.53 42.9377 2046.04 44.4033 2044.56 45.9337C2043.09 47.4382 2040.12 47.4382 2038.63 48.9168L2037.11 50.4212V48.9168L2032.68 51.9387C2029.71 50.4212 2028.22 53.4173 2026.7 53.4173C2023.75 53.4173 2022.26 51.9387 2020.77 53.4173C2019.31 53.4173 2017.8 51.9387 2016.34 51.9387C2010.38 51.9387 2008.89 59.4352 2005.92 62.4572C2005.92 63.9357 2004.43 63.9357 2004.43 65.4402C2002.94 68.4362 1998.48 68.4362 1998.48 72.9367C1998.48 72.9367 1997.01 72.9367 1997.01 74.4542C1997.01 75.9587 1995.52 78.9547 1994.03 80.4592C1992.54 83.4423 1991.06 84.9468 1989.57 87.9557C1983.61 95.4782 1980.64 105.984 1973.2 110.484V111.976C1970.23 110.484 1968.74 114.998 1967.27 116.476H1962.81V117.981C1959.83 116.476 1956.86 117.981 1955.36 119.498C1950.9 117.981 1947.95 121.003 1944.95 119.498C1941.98 119.498 1939 117.981 1933.07 116.476C1931.58 116.476 1931.58 116.476 1930.09 114.998C1928.62 114.998 1928.62 117.981 1927.12 117.981C1924.15 119.498 1921.16 122.481 1918.19 122.481C1915.21 122.481 1910.75 125.503 1907.78 121.003C1904.81 122.481 1903.32 116.476 1898.86 119.498C1895.87 122.481 1894.39 126.995 1891.41 130.004C1889.95 131.495 1888.44 130.004 1886.95 131.495L1881 140.522C1878.03 142.001 1875.07 148.019 1873.58 152.519C1872.09 154.024 1870.61 157.02 1869.12 160.042C1864.65 164.542 1866.15 172.026 1864.65 178.044C1866.15 179.548 1864.65 181.027 1866.15 182.544C1866.15 182.544 1866.15 179.548 1867.61 181.027V179.561V178.057V170.534C1870.59 170.534 1870.59 172.039 1872.07 173.556C1872.07 176.539 1870.61 179.561 1873.56 182.557C1875.06 184.062 1873.56 188.562 1878.03 187.058C1879.52 188.562 1882.49 188.562 1882.49 190.041C1883.98 191.558 1885.47 193.063 1885.47 194.567L1886.94 196.046V200.559C1888.43 202.064 1889.92 202.064 1891.4 202.064C1891.4 200.559 1888.43 202.064 1889.93 200.559C1889.93 197.576 1892.9 199.081 1894.39 199.081V196.046C1895.86 194.567 1894.39 193.063 1892.9 191.558C1892.9 190.041 1892.9 188.562 1894.39 188.562C1894.39 187.058 1895.86 185.553 1894.39 184.062V185.553H1892.9C1892.9 184.062 1891.41 182.557 1891.41 182.557C1889.95 181.04 1889.95 184.062 1888.44 182.557L1889.93 181.04H1886.95C1885.48 181.04 1885.48 182.557 1883.98 181.04C1883.98 179.561 1885.47 181.04 1885.47 179.561C1886.94 178.057 1886.94 176.539 1888.44 175.061C1886.95 173.556 1886.95 172.039 1885.47 170.521C1885.47 170.521 1886.94 170.521 1886.94 169.043C1888.43 169.043 1889.92 167.538 1891.4 167.538V166.034H1892.89C1895.86 167.538 1895.86 164.542 1897.35 163.038C1898.84 161.533 1900.32 160.055 1898.84 158.55C1900.31 157.033 1898.84 155.554 1900.31 154.037C1900.31 151.028 1903.29 151.028 1903.29 149.536C1903.29 148.032 1903.29 145.036 1904.78 146.514C1906.25 145.036 1909.24 146.514 1910.71 148.032C1912.2 146.514 1913.69 146.514 1913.69 145.036C1915.16 145.036 1919.62 143.531 1922.62 142.027C1922.62 142.027 1921.12 143.531 1922.62 143.531C1924.11 143.531 1924.11 142.027 1924.11 140.548C1924.11 136.009 1930.04 142.027 1930.04 137.526C1931.53 137.526 1933.02 136.009 1934.5 137.526C1934.5 137.526 1933.03 137.526 1934.5 139.044C1935.99 139.044 1935.99 137.526 1937.48 136.022H1940.45C1943.43 133.039 1941.94 137.539 1944.91 137.539H1946.4V139.057C1947.89 139.057 1946.4 140.561 1947.89 140.561C1947.89 142.04 1950.86 143.544 1952.36 143.544C1952.36 143.544 1953.82 143.544 1953.82 142.04C1953.82 140.561 1955.31 140.561 1955.31 140.561C1955.31 140.561 1956.8 140.561 1956.8 139.057C1958.27 139.057 1959.77 139.057 1961.27 137.539C1962.76 139.057 1964.24 137.539 1965.73 136.022H1968.7C1968.7 136.022 1971.68 137.539 1971.68 134.543C1973.15 136.022 1976.14 134.543 1977.61 136.022C1980.59 137.539 1979.1 133.039 1982.1 134.543C1983.56 133.039 1985.07 133.039 1986.56 131.521H1985.07H1988.02C1988.02 133.039 1989.51 133.039 1989.51 133.039H1992.48C1995.47 133.039 1995.47 128.525 1995.47 128.525C1996.96 127.021 1995.47 127.021 1995.47 125.529C1998.44 128.525 2001.42 128.525 2002.89 131.521C2004.38 133.039 2005.87 133.039 2005.87 134.543C2004.38 133.039 2002.89 137.526 2001.41 136.022C1999.92 137.539 1998.42 136.022 1996.95 134.543C1995.45 136.022 1992.46 136.022 1989.5 136.022C1988.01 136.022 1985.04 137.539 1986.53 140.561V142.04C1985.04 142.04 1985.04 143.544 1983.55 143.544C1982.08 145.049 1983.55 146.527 1982.08 148.045C1980.59 148.045 1979.1 146.527 1979.1 148.045L1977.61 154.05C1976.14 154.05 1977.61 151.041 1976.14 151.041C1976.14 149.549 1974.65 149.549 1976.14 148.045H1977.61V146.527C1977.61 145.049 1979.1 145.049 1979.1 145.049C1979.1 142.04 1976.13 142.04 1974.64 140.548C1971.67 139.044 1968.68 139.044 1965.71 139.044H1964.22L1961.25 140.548C1959.76 142.027 1956.79 140.548 1955.3 142.027C1953.81 142.027 1953.81 143.531 1953.81 145.036H1950.84C1950.84 149.536 1946.38 148.032 1946.38 152.532C1943.41 152.532 1944.89 155.554 1944.89 158.55C1944.89 158.55 1947.87 160.055 1947.87 161.533C1946.38 163.038 1946.38 169.056 1943.41 170.534C1946.38 172.039 1944.87 175.074 1944.87 176.539H1949.33C1950.83 179.561 1947.87 182.557 1947.87 184.062C1944.89 184.062 1944.89 187.058 1943.41 188.562C1941.92 188.562 1943.41 190.041 1943.41 191.558C1944.87 193.063 1944.87 190.041 1946.38 190.041C1947.88 190.041 1947.87 190.041 1947.87 188.562C1950.84 190.041 1952.33 185.553 1953.8 187.058H1956.78C1955.29 188.562 1955.29 191.558 1955.29 193.063V194.567C1955.29 196.046 1955.29 197.563 1953.8 199.081C1953.8 200.559 1955.29 205.06 1949.33 206.577V205.073C1949.33 202.077 1952.32 203.581 1952.32 202.077V200.572C1952.32 199.094 1952.32 197.589 1950.83 197.589C1949.33 197.589 1947.86 199.107 1946.36 197.589C1944.87 196.072 1944.87 199.107 1943.39 199.107C1940.41 197.589 1943.39 194.593 1940.41 191.584C1940.41 194.593 1940.41 197.589 1937.44 199.107C1938.91 200.585 1940.41 199.107 1941.9 199.107V200.585C1940.41 200.585 1940.41 202.09 1938.92 202.09L1937.45 200.585C1935.96 200.585 1935.96 202.09 1935.96 202.09C1935.96 203.594 1937.45 205.086 1935.96 206.603C1934.47 206.603 1934.47 208.108 1934.47 208.108C1930.01 208.108 1934.47 205.099 1933.01 203.594C1930.02 200.585 1934.47 199.107 1933.01 197.589C1934.47 196.072 1935.98 194.593 1937.47 194.593C1937.47 193.089 1935.98 191.584 1937.47 191.584C1938.93 193.089 1938.93 188.588 1940.44 187.084C1941.93 187.084 1943.42 185.579 1944.9 184.088C1943.43 181.066 1940.44 179.587 1940.44 176.565C1937.47 176.565 1940.44 173.582 1937.47 172.065C1935.98 172.065 1935.98 169.082 1933.01 170.56H1931.51C1931.51 172.065 1933.01 172.065 1933.01 173.582H1931.51C1930.02 170.56 1927.05 170.56 1925.56 170.56C1927.05 172.065 1925.56 173.582 1924.09 175.1H1925.56C1925.56 175.1 1927.05 175.1 1927.05 176.578H1924.08C1922.59 175.1 1927.05 172.078 1925.55 170.573C1924.08 170.573 1924.08 173.595 1922.58 173.595C1921.09 175.1 1919.59 175.1 1918.12 175.1V176.578C1918.12 178.096 1918.12 178.096 1916.62 178.096L1915.13 184.101C1916.62 182.596 1918.12 185.592 1919.59 184.101H1922.58C1922.58 185.592 1921.09 185.592 1921.09 187.097C1919.59 187.097 1919.59 185.592 1919.59 185.592C1919.59 185.592 1918.13 185.592 1918.13 187.097L1916.64 185.592V187.097C1915.15 188.601 1915.15 185.592 1913.67 185.592C1909.21 187.097 1910.68 191.597 1907.71 194.619C1906.22 197.615 1903.25 196.098 1901.76 196.098V197.615C1901.76 199.133 1903.25 199.133 1903.25 200.598C1901.76 203.607 1907.71 205.112 1906.22 209.599C1904.76 209.599 1906.22 211.104 1906.22 212.608L1895.81 215.591L1894.34 212.608C1895.81 211.104 1894.34 209.599 1892.85 208.108C1892.85 206.603 1894.34 206.603 1892.85 205.099V202.103L1888.39 206.616C1885.42 205.112 1882.44 203.62 1879.47 202.103C1876.48 199.12 1873.51 202.103 1870.54 200.598C1869.05 202.103 1870.54 205.112 1869.05 205.112C1867.56 203.62 1870.54 202.116 1867.56 200.598C1869.05 199.12 1870.54 200.598 1870.54 200.598C1870.54 196.085 1867.56 199.12 1866.08 197.615C1863.1 197.615 1864.59 194.619 1864.59 193.115C1863.1 193.115 1861.61 191.61 1861.61 191.61C1861.61 190.093 1861.61 188.614 1863.1 188.614C1863.1 187.11 1864.59 185.605 1864.59 184.114V181.092L1863.1 179.613C1863.1 181.092 1861.61 184.114 1861.61 184.114C1856.73 190.603 1854.13 198.514 1854.19 206.629C1853.48 207.469 1853.09 208.533 1853.09 209.632C1853.09 210.731 1853.48 211.794 1854.19 212.634C1854.19 218.652 1852.72 224.631 1852.72 229.145H1854.19C1854.19 229.145 1852.72 227.653 1854.19 227.653C1854.19 226.149 1852.72 224.631 1854.19 224.631V220.131C1855.68 220.131 1855.68 221.635 1855.68 221.635H1857.14C1857.14 223.14 1858.64 224.631 1857.14 226.149C1858.64 227.653 1857.15 229.145 1858.64 230.649C1860.13 232.154 1861.61 235.15 1864.59 233.658C1866.08 233.658 1866.08 230.649 1867.56 230.649V232.154C1867.56 232.154 1867.56 233.658 1866.09 233.658C1866.09 235.137 1864.6 235.137 1863.11 235.137C1863.11 236.654 1864.6 236.654 1866.09 238.159C1866.09 239.637 1867.56 239.637 1867.56 241.142C1867.56 241.142 1867.56 242.646 1866.09 242.646C1864.6 242.646 1866.09 244.138 1864.6 244.138C1864.6 244.138 1863.11 245.655 1863.11 244.138C1863.11 242.646 1860.14 244.138 1860.14 242.646C1861.61 241.142 1860.14 239.637 1861.61 241.142C1861.61 239.637 1863.1 239.637 1863.1 239.637H1860.13C1858.64 238.159 1857.14 238.159 1855.67 238.159V236.654C1855.67 236.654 1854.17 238.159 1852.7 236.654C1852.7 236.654 1854.16 235.137 1852.7 235.137C1854.16 233.658 1854.16 232.154 1854.16 230.636H1852.7C1852.7 236.641 1851.2 241.142 1851.2 247.16C1852.7 254.656 1848.22 265.162 1848.22 272.684C1848.22 277.185 1846.76 281.685 1848.22 286.199C1849.71 295.2 1852.71 304.201 1851.2 314.706L1852.7 313.202C1852.7 311.723 1854.16 310.219 1854.16 308.701C1855.65 307.197 1852.7 305.705 1854.16 304.201C1852.7 302.683 1854.16 301.205 1852.7 298.196C1852.7 296.717 1854.16 295.2 1852.7 293.682C1851.2 293.682 1852.7 290.699 1851.2 289.182C1852.7 286.199 1848.22 284.668 1851.2 281.685C1851.2 280.181 1849.71 278.676 1851.2 278.676C1849.71 275.68 1852.7 272.697 1852.7 269.675C1854.16 271.18 1855.67 274.163 1858.62 272.684C1858.62 271.18 1860.12 269.675 1860.12 268.158C1860.12 266.666 1858.62 268.158 1857.13 266.666C1857.13 265.162 1855.67 268.158 1854.16 265.162H1855.65L1854.16 263.657C1854.16 262.166 1855.65 263.657 1857.13 263.657C1858.62 262.166 1857.13 259.144 1858.62 257.678L1860.12 259.157C1858.62 262.179 1863.09 260.674 1863.09 263.67C1863.09 265.175 1861.59 265.175 1861.59 265.175V269.688C1860.13 271.193 1860.13 272.697 1860.13 274.176C1861.59 275.693 1863.1 277.198 1866.08 278.689C1866.08 280.194 1864.59 283.19 1866.08 284.694L1867.55 286.212V293.695H1870.53V304.214C1870.53 304.214 1867.55 304.214 1867.55 305.718C1867.55 308.714 1863.09 308.714 1863.09 310.219C1861.59 310.219 1860.12 311.736 1860.12 310.219V311.736C1860.12 313.215 1858.62 313.215 1858.62 313.215C1857.13 313.215 1858.62 314.719 1858.62 314.719C1860.12 314.719 1861.59 316.237 1863.09 316.237H1864.58V319.22C1861.59 319.22 1860.12 316.237 1857.13 316.237C1855.67 316.237 1855.67 314.719 1855.67 313.215L1854.18 314.719C1852.71 316.237 1854.17 319.233 1852.71 320.737V316.237C1852.71 319.22 1852.71 323.72 1851.22 326.716C1851.22 328.234 1849.73 328.234 1851.22 329.738C1849.73 329.738 1849.73 331.243 1849.73 331.243C1848.23 335.743 1848.23 340.244 1845.26 344.757C1845.26 347.753 1842.28 350.762 1840.83 353.758C1845.26 356.754 1849.73 358.272 1852.71 361.255C1855.68 362.759 1857.15 365.755 1860.13 368.777C1860.13 370.282 1860.13 370.282 1861.59 370.282C1861.59 368.777 1860.13 367.273 1861.59 367.273C1861.59 364.277 1858.62 364.277 1858.62 361.255C1858.62 361.255 1857.13 361.255 1857.13 359.776V358.272C1857.13 358.272 1855.67 358.272 1855.67 356.754V353.758V352.254L1857.13 350.775H1858.62C1858.62 350.775 1860.12 350.775 1860.12 349.271L1861.58 350.775C1863.07 350.775 1863.07 349.271 1864.56 347.766V349.271L1861.58 352.254C1861.58 352.254 1860.12 352.254 1860.12 353.758C1860.12 356.754 1864.58 358.272 1864.58 361.255C1867.55 362.759 1867.55 365.755 1869.04 365.755C1870.53 367.273 1870.53 370.282 1870.53 371.76C1874.99 370.282 1877.95 376.261 1880.92 371.76C1882.41 371.76 1882.41 373.265 1882.41 373.265C1882.41 374.769 1883.9 374.769 1883.9 374.769H1885.39C1885.39 376.261 1886.86 376.261 1886.86 376.261V379.283C1888.35 379.283 1888.35 380.761 1888.35 380.761C1886.86 380.761 1886.86 380.761 1888.35 382.279C1886.86 382.279 1888.35 383.783 1888.35 383.783C1889.84 386.779 1888.35 388.284 1889.84 391.28C1889.84 392.784 1889.84 394.289 1888.35 395.78V403.303H1889.84C1889.84 403.303 1889.84 404.82 1888.35 404.82C1888.35 404.82 1888.35 406.299 1889.84 406.299C1889.84 407.816 1888.35 409.321 1889.84 410.812V412.317C1891.31 413.821 1891.31 415.3 1891.31 416.817C1889.84 418.322 1889.84 418.322 1889.84 419.813C1889.84 422.822 1891.31 425.818 1888.35 428.84C1888.35 428.84 1889.84 430.319 1888.35 430.319C1889.84 433.328 1886.86 436.324 1889.84 437.841C1891.31 437.841 1891.31 439.333 1892.81 437.841V439.333C1891.32 442.342 1892.81 445.338 1891.32 448.36C1889.85 449.838 1891.32 449.838 1889.85 451.343C1892.82 452.847 1889.85 455.843 1892.82 457.361C1892.82 457.361 1894.32 458.839 1894.32 457.361C1897.29 457.361 1895.78 455.843 1897.29 455.843C1898.78 457.361 1900.26 458.839 1901.75 457.361C1903.24 457.361 1903.24 458.839 1903.24 457.361H1906.21C1907.7 457.361 1909.19 455.843 1909.19 455.843C1910.66 460.344 1915.12 455.843 1918.12 457.361V455.843C1919.58 454.339 1921.09 455.843 1922.58 455.843H1924.07C1922.58 457.361 1921.09 455.843 1919.58 457.361C1922.56 458.839 1925.53 461.861 1928.52 463.366C1929.98 464.844 1929.98 464.844 1931.49 463.366V466.349C1932.98 466.349 1934.46 467.866 1934.46 466.349H1935.95V467.866C1937.44 469.345 1935.95 470.849 1935.95 472.367C1937.44 473.845 1938.92 473.845 1938.92 472.367C1941.9 472.367 1943.41 475.363 1944.87 473.845C1944.87 470.862 1946.36 470.862 1949.33 469.345C1950.83 469.345 1950.83 472.367 1953.8 470.862C1955.29 470.862 1958.26 469.345 1958.26 467.879V466.362C1959.75 466.362 1961.24 466.362 1961.24 464.857H1962.73C1964.2 464.857 1965.7 464.857 1965.7 463.379C1965.7 463.379 1964.21 461.874 1965.7 461.874H1967.19C1968.66 463.379 1970.16 461.874 1970.16 463.379C1970.16 464.857 1970.16 464.857 1971.66 464.857C1971.66 466.362 1970.16 466.362 1970.16 467.879C1971.66 470.862 1974.63 467.879 1976.12 469.358V470.875C1977.58 470.875 1977.58 473.858 1979.09 472.38C1980.58 470.875 1982.07 470.875 1980.58 469.358C1979.09 467.879 1982.07 466.362 1979.09 464.857C1977.6 464.857 1976.12 464.857 1976.12 463.379C1977.58 463.379 1980.58 464.857 1982.07 463.379C1983.54 460.37 1983.54 464.857 1986.53 464.857C1988 464.857 1989.5 464.857 1989.5 463.379C1988.01 461.874 1990.99 458.852 1989.5 457.374C1988.01 457.374 1988.01 457.374 1988.01 458.852C1988.01 455.856 1985.04 454.352 1985.04 452.86C1985.04 451.356 1982.07 451.356 1980.58 451.356C1980.58 451.356 1980.58 449.851 1979.09 449.851C1979.09 448.373 1977.6 449.851 1976.12 448.373C1974.63 446.855 1973.13 445.351 1970.16 445.351C1970.16 443.872 1968.67 440.85 1968.67 440.85C1967.21 440.85 1967.21 440.85 1965.7 439.346V440.85C1964.21 440.85 1962.73 442.355 1961.24 442.355C1961.24 443.859 1959.75 443.859 1959.75 443.859C1956.78 443.859 1953.8 443.859 1952.33 442.355C1952.33 440.85 1952.33 439.346 1953.8 439.346C1955.29 440.85 1956.78 437.854 1958.26 437.854C1961.24 440.85 1961.24 436.35 1964.21 436.35C1967.19 433.354 1961.24 431.849 1962.74 430.345C1961.97 430.293 1961.24 429.962 1960.69 429.413C1960.14 428.865 1959.81 428.136 1959.76 427.362C1958.27 427.362 1956.79 428.866 1956.79 427.362C1956.79 427.362 1955.3 425.844 1955.3 424.365H1958.27V425.844C1959.76 425.844 1961.25 428.866 1962.76 427.362C1959.77 425.844 1961.27 424.366 1959.77 422.848L1962.76 421.344C1962.76 418.348 1967.22 421.344 1967.22 416.843H1971.68V419.839C1974.65 419.839 1974.65 415.326 1977.61 416.843V413.847C1976.14 413.847 1976.14 415.326 1974.64 415.326C1973.15 413.847 1973.15 413.847 1974.64 412.342V413.847C1976.13 413.847 1976.13 412.342 1974.64 412.342H1976.13C1977.6 413.847 1977.6 412.342 1979.1 412.342C1979.1 410.838 1979.1 409.36 1980.59 409.36C1979.1 406.338 1977.61 406.338 1976.13 404.859C1974.64 403.342 1974.64 404.859 1973.15 404.859V403.341H1974.64V401.837V398.854C1974.64 397.336 1973.15 395.832 1974.64 394.34C1973.15 392.836 1971.67 392.836 1970.18 392.836C1970.18 391.332 1971.67 391.331 1971.67 389.853C1971.67 388.348 1973.13 386.844 1971.67 386.844C1971.67 383.848 1968.69 382.343 1967.21 382.343V379.347C1968.67 380.826 1971.67 382.343 1973.13 382.343C1974.63 382.343 1976.12 380.826 1977.6 379.347C1977.6 377.83 1979.09 377.83 1979.09 377.83V376.325C1976.12 376.325 1977.6 373.329 1976.12 371.825C1974.63 371.825 1973.13 371.825 1973.13 370.346V371.825C1971.67 370.346 1970.16 373.33 1970.16 373.33C1970.16 371.825 1970.16 371.825 1968.67 370.346H1970.16V368.842V367.337H1971.66C1971.66 370.346 1973.12 367.337 1974.63 368.842C1976.12 368.842 1976.12 368.842 1976.12 367.337C1977.58 365.82 1980.58 368.842 1983.54 368.842C1983.54 365.82 1982.07 364.341 1983.54 362.824H1985.03C1986.52 362.824 1986.52 361.319 1986.52 361.319C1987.98 359.841 1987.98 358.336 1987.98 356.819C1990.97 356.819 1990.97 355.327 1993.94 353.823V352.189H1986.51C1986.51 350.71 1985.01 350.71 1985.01 349.206C1983.52 347.701 1983.52 346.223 1983.52 346.223C1979.06 347.701 1980.55 341.696 1979.06 341.696C1976.09 343.201 1976.09 340.205 1973.11 341.696V338.7H1979.06C1980.55 340.205 1980.55 340.205 1982.04 338.7H1983.51C1982.04 338.7 1982.04 340.205 1982.04 340.205C1982.04 341.696 1985.01 341.696 1985.01 343.201H1986.51C1989.48 343.201 1989.48 346.223 1990.97 346.223C1995.43 343.201 1999.89 343.201 2004.34 341.696C2005.83 343.201 2007.28 340.205 2008.8 341.696C2008.8 340.205 2008.8 340.205 2007.28 338.7C2004.34 338.7 2008.8 337.183 2008.8 335.704V337.183L2011.77 335.704C2011.77 334.187 2013.24 335.704 2014.75 334.187C2013.24 334.187 2010.29 332.682 2010.29 332.682C2008.8 331.204 2008.8 332.682 2008.8 332.682C2007.28 331.204 2008.8 329.699 2008.8 329.699C2011.77 328.195 2010.29 326.677 2011.77 325.199V322.177H2008.8C2008.8 322.177 2010.29 320.698 2008.8 320.698L2007.28 322.177H2004.34V320.698H2002.85V316.198C2004.34 317.676 2004.34 317.676 2004.34 316.198H2008.8V314.68C2010.29 314.68 2010.29 314.68 2011.77 313.176H2014.75C2017.72 313.176 2016.25 314.68 2017.72 316.198L2019.22 314.68C2017.72 316.198 2019.22 317.676 2020.68 319.194C2022.17 320.698 2023.66 322.177 2023.66 320.698V319.194C2023.66 317.689 2023.66 319.194 2025.16 319.194V317.689C2023.66 316.211 2023.66 314.693 2023.66 313.176H2025.16C2025.16 313.176 2026.59 311.697 2026.59 310.193C2032.57 310.193 2028.11 305.692 2031.06 302.67C2029.62 301.192 2029.62 295.174 2029.62 292.178H2031.06C2031.06 289.169 2029.62 284.655 2029.62 281.659C2029.62 278.65 2025.16 275.654 2028.13 274.137C2026.61 269.649 2031.07 268.132 2032.59 266.64C2034.05 265.136 2034.05 263.631 2035.56 262.14H2038.54C2037.02 259.118 2040.03 259.118 2038.54 257.639C2038.54 256.122 2040.03 256.122 2040.03 256.122H2041.5C2041.5 256.122 2042.99 256.122 2041.5 254.617H2040.03V251.634C2040.03 251.634 2041.5 251.634 2041.5 253.139H2045.93C2045.93 251.634 2047.42 253.139 2047.42 253.139C2047.42 254.617 2047.42 254.617 2048.94 256.122C2050.38 256.122 2048.94 256.122 2050.38 254.617V256.122C2050.38 256.122 2051.87 256.122 2051.87 257.639C2048.93 257.639 2048.93 260.622 2047.41 262.14C2047.41 262.14 2045.92 262.14 2045.92 263.631C2047.41 263.631 2047.41 262.14 2047.41 262.14C2048.93 263.631 2048.93 265.136 2048.93 266.64H2045.92C2044.45 266.64 2044.45 265.136 2045.92 265.136V263.631H2042.98C2044.44 266.64 2041.48 265.136 2040.01 266.64C2040.01 266.64 2038.51 265.136 2038.51 266.64C2038.51 268.132 2040.01 268.132 2040.01 268.132C2040.01 269.649 2040.01 271.154 2041.47 271.154C2041.47 272.658 2042.96 272.658 2044.44 272.658C2045.91 271.154 2045.91 271.154 2045.91 269.649C2047.4 269.649 2048.92 271.154 2050.37 272.658C2051.86 272.658 2051.86 271.154 2053.35 271.154C2053.35 272.658 2051.86 274.137 2051.86 275.654H2050.37C2050.37 274.137 2048.93 275.654 2048.93 275.654C2050.37 277.172 2050.37 281.659 2051.87 283.151C2053.36 281.672 2054.86 281.672 2054.86 281.672C2054.86 280.168 2056.35 278.663 2054.86 277.172C2056.35 275.654 2054.86 274.15 2053.36 272.671C2053.36 271.167 2054.86 269.662 2056.35 268.145C2057.81 268.145 2057.81 265.149 2057.81 265.149C2059.3 263.644 2060.78 263.644 2060.78 262.153C2062.3 265.149 2063.77 262.153 2065.24 263.644C2066.74 266.653 2065.24 268.145 2065.24 269.662C2063.78 269.662 2063.78 269.662 2062.3 268.145V269.662C2062.3 271.167 2063.77 272.671 2065.24 274.15C2065.24 275.667 2065.24 275.667 2066.74 277.172C2069.71 277.172 2069.71 272.671 2071.2 271.167C2071.2 268.145 2071.2 266.653 2072.69 263.644C2072.69 262.153 2074.18 260.648 2075.66 260.648C2077.15 260.648 2077.15 259.131 2078.64 259.131C2078.64 257.652 2080.11 256.148 2080.11 254.63L2083.09 251.647C2084.56 250.13 2084.56 248.625 2086.06 247.147C2086.06 245.642 2086.06 242.633 2087.55 239.624V235.124C2089.02 232.141 2090.52 233.645 2090.52 232.141C2089.14 230.597 2090.63 227.601 2087.67 227.601ZM1866.17 334.187C1864.68 337.183 1867.64 338.7 1866.17 341.696C1866.17 343.201 1866.17 344.705 1864.68 346.223C1863.19 346.223 1864.68 347.701 1863.19 347.701C1861.7 349.206 1860.22 347.701 1860.22 347.701C1857.24 346.223 1860.22 343.201 1858.73 341.696C1860.22 340.205 1858.73 340.205 1858.73 338.7C1860.22 335.704 1858.73 332.682 1860.22 329.699C1860.22 328.195 1861.68 328.195 1861.68 326.677H1863.18C1863.18 326.677 1861.68 325.199 1863.18 325.199C1864.67 325.199 1866.16 328.195 1869.13 328.195V329.699C1867.64 331.191 1869.13 334.187 1866.17 334.187ZM2242.3 361.203C2243.79 359.724 2242.3 359.724 2242.3 358.22C2242.3 358.22 2240.78 355.224 2239.31 353.706H2240.78C2239.31 352.202 2240.78 352.202 2239.31 350.723L2237.85 349.219H2239.31L2237.85 347.714V349.219L2236.36 347.714C2236.36 346.236 2236.35 346.236 2237.85 344.718C2236.35 344.718 2234.84 344.718 2234.84 343.214C2236.35 341.709 2237.85 337.196 2236.36 334.2V329.699H2234.84C2234.84 326.677 2234.84 322.177 2233.4 320.698C2233.4 319.194 2231.91 317.689 2231.91 316.198V313.15V311.671H2230.41C2231.91 310.154 2233.4 307.145 2233.4 305.653V304.149C2233.4 302.631 2236.37 301.153 2237.86 299.648C2239.33 298.144 2239.33 296.665 2240.8 295.148H2239.34C2237.87 292.152 2234.85 292.152 2233.41 289.143C2230.43 286.16 2224.47 287.638 2221.5 286.16L2215.55 281.646H2211.09C2206.63 283.125 2200.68 284.629 2199.21 287.638C2194.75 290.647 2188.79 295.161 2185.84 298.157C2184.35 298.157 2182.85 299.661 2181.35 301.166C2178.38 302.644 2176.89 304.162 2173.93 304.162V305.666C2175.42 307.158 2173.93 308.662 2175.42 310.167C2176.89 308.662 2176.89 313.15 2178.39 313.15C2182.85 314.654 2179.88 319.168 2182.85 320.672C2185.84 323.655 2181.36 325.173 2181.36 328.169C2178.39 325.173 2178.39 329.673 2176.9 329.673L2175.44 331.178L2173.94 335.678C2175.44 337.157 2172.45 338.674 2173.94 338.674C2175.44 338.674 2176.91 340.179 2176.91 341.67C2176.91 341.67 2176.91 343.175 2175.45 343.175C2175.45 343.175 2175.45 340.179 2173.96 341.67C2172.47 343.175 2173.96 346.197 2172.47 349.193C2171 347.688 2172.47 347.688 2169.5 346.21C2169.5 346.21 2169.5 343.188 2168 343.188C2168 341.683 2166.51 340.192 2166.51 340.192V341.683C2166.51 343.188 2165.05 341.683 2163.54 343.188C2162.05 341.683 2159.08 344.692 2156.12 343.188C2156.12 341.683 2157.59 341.683 2157.59 341.683C2159.08 340.192 2160.57 340.192 2162.05 340.192C2163.54 338.687 2166.51 341.683 2166.51 338.687C2166.51 337.17 2165.05 337.17 2165.05 335.691C2165.05 334.174 2163.56 335.691 2165.05 335.691C2168.02 334.174 2165.05 332.669 2165.05 331.191V326.664C2165.05 325.186 2163.56 323.668 2163.56 322.164C2162.06 320.685 2162.06 319.181 2162.06 319.181C2159.09 319.181 2159.09 316.198 2159.09 316.198L2157.6 314.68L2159.09 313.176H2162.06C2162.06 311.697 2162.06 310.193 2163.56 311.697C2162.06 311.697 2163.56 313.176 2163.56 314.68H2165.05C2165.05 314.68 2168.02 314.68 2166.51 313.176C2166.51 310.193 2166.51 308.675 2168 307.171C2169.5 307.171 2169.5 308.675 2169.5 308.675L2170.99 307.171L2169.5 304.175C2166.51 302.657 2166.51 305.679 2165.03 307.171C2163.54 307.171 2160.57 307.171 2160.57 308.675C2159.08 308.675 2156.11 307.171 2154.62 307.171C2153.13 307.171 2153.13 305.679 2153.13 305.679C2151.66 305.679 2150.16 307.171 2148.67 307.171C2144.2 305.679 2139.74 305.679 2135.29 304.175C2133.8 301.179 2129.34 302.657 2127.85 299.674C2127.85 299.674 2127.85 298.17 2126.38 298.17C2127.85 299.674 2127.85 301.179 2127.85 302.67C2129.34 302.67 2129.34 305.692 2130.83 304.188C2133.8 307.184 2136.79 305.692 2139.76 307.184C2142.73 305.692 2144.22 308.688 2147.17 310.193C2148.67 313.176 2145.71 316.211 2145.71 320.711C2145.71 320.711 2145.71 322.19 2144.22 322.19C2144.22 323.694 2142.73 322.19 2141.25 322.19C2139.76 322.19 2138.26 325.212 2136.79 325.212C2135.29 325.212 2135.29 323.694 2135.29 323.694C2133.8 322.19 2133.8 322.19 2132.32 322.19V323.694C2133.79 323.694 2133.79 325.212 2135.29 326.69C2133.8 329.712 2133.8 334.213 2129.34 337.209C2129.34 337.209 2127.85 337.209 2127.85 338.726V337.209H2126.38V338.726L2124.89 340.231C2123.4 340.231 2123.4 338.726 2121.92 338.726C2120.43 335.73 2120.43 340.231 2118.94 340.231C2118.94 340.231 2117.47 338.726 2117.47 337.209H2118.94L2117.47 335.73C2115.98 337.209 2113.01 335.73 2110.03 338.726C2108.54 338.726 2107.06 340.231 2105.57 338.726C2102.6 335.73 2099.61 337.209 2096.64 335.73C2095.15 337.209 2092.18 337.209 2090.69 337.209L2095.15 340.231C2096.64 338.726 2098.14 341.722 2099.61 340.231C2102.6 340.231 2102.6 343.227 2104.08 344.731L2108.54 349.232V347.727C2110.03 347.727 2111.52 349.232 2111.52 349.232C2111.52 350.736 2110.03 350.736 2110.03 350.736L2108.54 349.232C2108.54 350.736 2107.07 350.736 2107.07 350.736C2104.09 349.232 2099.63 350.736 2096.66 347.727V349.232C2098.15 350.736 2099.63 350.736 2101.12 350.736C2104.09 350.736 2107.07 353.719 2110.04 355.237C2110.04 359.75 2116 365.729 2114.5 368.751C2113.04 370.256 2111.53 368.751 2110.04 370.256C2107.07 367.247 2108.55 371.734 2107.07 371.734L2110.04 373.239C2111.53 373.239 2111.53 371.734 2113.03 371.734L2114.49 373.239C2117.47 374.743 2117.47 382.253 2118.95 383.757C2118.95 385.262 2118.95 386.753 2117.49 386.753L2118.95 389.762C2120.44 389.762 2118.95 391.241 2118.95 391.241C2117.49 392.745 2113.03 394.25 2113.03 397.246C2111.53 397.246 2111.53 395.728 2111.53 395.728C2113.03 394.25 2110.04 395.728 2110.04 394.25C2110.04 395.728 2108.55 397.246 2108.55 398.763C2110.04 398.763 2113.04 400.242 2111.53 401.746C2113.03 401.746 2114.5 403.251 2116 404.768H2117.49C2118.95 406.247 2120.46 409.269 2121.95 410.747C2120.46 413.756 2121.95 413.756 2123.41 413.756C2123.41 413.756 2124.91 412.252 2124.91 413.756V416.752C2123.41 416.752 2121.94 415.235 2120.44 413.756C2120.44 415.235 2121.94 418.257 2120.44 418.257C2121.94 419.748 2121.94 421.253 2123.41 421.253C2124.91 419.748 2124.91 421.253 2126.4 422.757H2129.37L2127.88 421.253C2127.88 421.253 2126.41 419.748 2127.88 419.748L2129.37 421.253V418.257C2129.37 418.257 2130.86 416.752 2130.86 418.257H2136.81C2138.28 418.257 2139.78 419.748 2139.78 419.748C2141.27 419.748 2141.27 421.253 2142.75 421.253H2145.74C2147.2 422.757 2148.71 422.757 2150.2 424.275C2151.69 422.757 2153.17 425.753 2154.66 425.753C2156.15 427.271 2159.12 428.775 2159.12 430.267C2160.61 428.788 2156.15 427.284 2157.63 425.753H2156.16C2156.16 424.275 2157.63 419.748 2160.62 419.748L2162.09 421.253C2163.58 422.757 2163.58 422.757 2162.09 424.275C2165.07 425.753 2160.62 425.753 2160.62 427.271C2162.09 430.254 2163.59 427.271 2165.09 428.775H2168.06V430.254H2169.55C2169.55 430.254 2171.04 431.758 2169.55 431.758C2169.55 433.263 2169.55 433.263 2168.06 431.758L2165.09 433.263C2165.09 434.754 2163.59 434.754 2163.59 433.263C2162.1 433.263 2162.1 431.758 2162.1 433.263C2159.13 434.754 2163.59 436.259 2163.59 437.763C2163.59 437.763 2165.09 437.763 2165.09 439.255H2163.59V440.759C2165.09 440.759 2166.56 442.264 2166.56 440.759C2166.56 440.759 2165.09 440.759 2165.09 439.255H2166.56C2169.55 440.759 2168.06 443.781 2171.05 445.26C2171.05 445.26 2171.05 446.764 2169.56 446.764C2168.07 445.26 2165.1 443.781 2163.61 442.264C2162.12 443.768 2160.64 440.759 2159.15 442.264C2160.64 442.264 2162.12 443.768 2162.12 443.768C2166.58 445.247 2169.56 448.282 2171.05 449.76C2172.52 452.769 2175.51 452.769 2176.98 454.261L2178.47 452.769H2176.98C2178.47 451.265 2179.96 452.769 2181.44 452.769C2181.44 454.261 2182.93 455.765 2184.42 457.283H2185.92C2185.92 458.761 2185.92 458.761 2187.38 458.761C2190.36 458.761 2191.84 458.761 2193.33 457.283C2191.84 455.765 2194.83 457.283 2194.83 454.261H2196.29C2197.78 454.261 2199.27 454.261 2200.75 452.769C2199.29 451.265 2197.78 449.76 2197.78 448.269V446.751L2196.29 445.247L2194.83 440.746C2196.29 439.242 2196.29 442.251 2197.8 440.746C2200.77 443.755 2197.8 439.242 2200.77 439.242C2199.3 437.75 2202.26 436.246 2200.77 434.741C2199.3 434.741 2199.3 433.25 2197.8 433.25C2197.8 433.25 2196.3 431.745 2196.3 433.25C2194.84 434.741 2193.33 433.25 2191.84 433.25C2190.38 433.25 2188.87 434.741 2188.87 433.25V431.745C2188.87 430.241 2187.38 428.762 2187.38 427.245C2190.36 427.245 2193.33 425.727 2193.33 425.727V427.245C2193.33 428.749 2191.84 430.228 2193.33 431.745C2193.33 433.25 2194.83 431.745 2194.83 431.745V425.727C2197.8 424.249 2196.29 421.227 2199.29 421.227C2199.29 418.231 2202.26 419.722 2203.75 418.231C2205.21 416.726 2206.72 416.726 2208.21 416.726C2211.18 415.209 2211.18 416.726 2212.67 416.726C2214.16 416.726 2215.64 418.231 2215.64 418.231C2215.64 415.209 2218.61 415.209 2220.1 415.209C2220.1 413.73 2220.1 413.73 2221.6 413.73C2221.6 410.721 2224.57 412.226 2224.57 410.721C2223.1 407.738 2224.57 406.208 2224.57 403.225L2223.1 401.72C2221.61 398.737 2218.61 395.702 2217.12 392.719C2215.66 394.224 2212.69 391.215 2211.19 392.719C2209.73 391.215 2206.73 389.736 2203.77 388.219C2203.77 388.219 2203.77 386.714 2202.28 386.714C2202.28 383.718 2200.79 379.218 2202.28 376.196C2203.77 374.704 2206.74 371.695 2206.74 368.699H2208.24C2208.24 368.699 2209.73 368.699 2209.73 367.195C2211.19 364.199 2215.66 362.681 2217.12 362.681V361.177C2220.1 359.698 2221.61 359.698 2223.1 359.698H2226.07C2226.07 361.177 2227.56 359.698 2227.56 359.698C2229.05 359.698 2229.05 358.194 2229.05 358.194V356.676C2230.52 350.697 2233.51 349.18 2234.95 349.18L2230.52 358.181C2230.52 359.685 2230.52 359.685 2229.05 362.681C2230.52 362.681 2229.05 364.199 2229.05 364.199C2230.52 365.677 2230.52 367.195 2230.52 367.195C2232.01 368.699 2236.47 368.699 2236.47 370.204C2237.96 368.699 2239.44 367.195 2239.44 365.677C2240.91 365.677 2242.42 365.677 2243.93 364.199C2243.79 364.212 2243.79 362.707 2242.3 361.203ZM2157.54 311.684C2157.54 313.163 2156.07 313.163 2156.07 313.163V311.684C2154.58 311.684 2154.58 310.167 2154.58 310.167V308.662C2156.07 310.167 2156.07 310.167 2156.07 311.684H2157.54ZM2239.3 362.707C2237.83 362.707 2239.3 365.703 2237.83 365.703C2236.34 367.221 2234.82 365.703 2233.37 365.703H2236.34C2237.83 365.703 2236.34 362.707 2237.83 362.707C2239.3 362.707 2240.78 361.203 2240.78 361.203C2240.78 361.203 2240.78 362.707 2239.3 362.707Z" fill="black"/>
<path fill-rule="evenodd" clip-rule="evenodd" d="M2167.94 332.669V335.691C2167.94 337.17 2170.92 337.17 2170.92 338.687C2170.92 338.687 2172.39 338.687 2172.39 337.17C2173.88 335.691 2173.88 332.669 2173.88 331.191L2172.39 328.182C2170.92 329.686 2172.39 331.191 2170.92 332.682C2169.44 331.191 2169.44 334.187 2167.94 332.669Z" fill="black"/>
</g>
</svg>
